<svg id="visual" viewBox="0 0 2560 1440" width="2560" height="1440" xmlns="http://www.w3.org/2000/svg" xmlns:xlink="http://www.w3.org/1999/xlink" version="1.1"><rect x="0" y="0" width="2560" height="1440" fill="#1e1e2e"></rect><path d="M0 883L61 914.3C122 945.7 244 1008.3 365.8 1036.3C487.7 1064.3 609.3 1057.7 731.2 1039.5C853 1021.3 975 991.7 1097 987.2C1219 982.7 1341 1003.3 1463 1023.2C1585 1043 1707 1062 1828.8 1068.2C1950.7 1074.3 2072.3 1067.7 2194.2 1060.5C2316 1053.3 2438 1045.7 2499 1041.8L2560 1038L2560 1441L2499 1441C2438 1441 2316 1441 2194.2 1441C2072.3 1441 1950.7 1441 1828.8 1441C1707 1441 1585 1441 1463 1441C1341 1441 1219 1441 1097 1441C975 1441 853 1441 731.2 1441C609.3 1441 487.7 1441 365.8 1441C244 1441 122 1441 61 1441L0 1441Z" fill="#2c2e47"></path><path d="M0 991L61 994.2C122 997.3 244 1003.7 365.8 1024.5C487.7 1045.3 609.3 1080.7 731.2 1101.7C853 1122.7 975 1129.3 1097 1129.3C1219 1129.3 1341 1122.7 1463 1101.3C1585 1080 1707 1044 1828.8 1041C1950.7 1038 2072.3 1068 2194.2 1096.8C2316 1125.7 2438 1153.3 2499 1167.2L2560 1181L2560 1441L2499 1441C2438 1441 2316 1441 2194.2 1441C2072.3 1441 1950.7 1441 1828.8 1441C1707 1441 1585 1441 1463 1441C1341 1441 1219 1441 1097 1441C975 1441 853 1441 731.2 1441C609.3 1441 487.7 1441 365.8 1441C244 1441 122 1441 61 1441L0 1441Z" fill="#30324a"></path><path d="M0 1119L61 1134.2C122 1149.3 244 1179.7 365.8 1180C487.7 1180.3 609.3 1150.7 731.2 1148C853 1145.3 975 1169.7 1097 1168C1219 1166.3 1341 1138.7 1463 1136.8C1585 1135 1707 1159 1828.8 1172.5C1950.7 1186 2072.3 1189 2194.2 1182C2316 1175 2438 1158 2499 1149.5L2560 1141L2560 1441L2499 1441C2438 1441 2316 1441 2194.2 1441C2072.3 1441 1950.7 1441 1828.8 1441C1707 1441 1585 1441 1463 1441C1341 1441 1219 1441 1097 1441C975 1441 853 1441 731.2 1441C609.3 1441 487.7 1441 365.8 1441C244 1441 122 1441 61 1441L0 1441Z" fill="#34364e"></path><path d="M0 1352L61 1331.5C122 1311 244 1270 365.8 1252.2C487.7 1234.3 609.3 1239.7 731.2 1241.3C853 1243 975 1241 1097 1241.5C1219 1242 1341 1245 1463 1254.8C1585 1264.7 1707 1281.3 1828.8 1284.2C1950.7 1287 2072.3 1276 2194.2 1285.3C2316 1294.7 2438 1324.3 2499 1339.2L2560 1354L2560 1441L2499 1441C2438 1441 2316 1441 2194.2 1441C2072.3 1441 1950.7 1441 1828.8 1441C1707 1441 1585 1441 1463 1441C1341 1441 1219 1441 1097 1441C975 1441 853 1441 731.2 1441C609.3 1441 487.7 1441 365.8 1441C244 1441 122 1441 61 1441L0 1441Z" fill="#393b52"></path></svg>