<svg id="visual" viewBox="0 0 900 600" width="900" height="600" xmlns="http://www.w3.org/2000/svg" xmlns:xlink="http://www.w3.org/1999/xlink" version="1.1"><rect x="0" y="0" width="900" height="600" fill="#000000"></rect><path d="M0 376L16.7 378C33.3 380 66.7 384 100 373.8C133.3 363.7 166.7 339.3 200 332.7C233.3 326 266.7 337 300 351.7C333.3 366.3 366.7 384.7 400 383.3C433.3 382 466.7 361 500 358.2C533.3 355.3 566.7 370.7 600 373.7C633.3 376.7 666.7 367.3 700 354.3C733.3 341.3 766.7 324.7 800 319.5C833.3 314.3 866.7 320.7 883.3 323.8L900 327L900 601L883.3 601C866.7 601 833.3 601 800 601C766.7 601 733.3 601 700 601C666.7 601 633.3 601 600 601C566.7 601 533.3 601 500 601C466.7 601 433.3 601 400 601C366.7 601 333.3 601 300 601C266.7 601 233.3 601 200 601C166.7 601 133.3 601 100 601C66.7 601 33.3 601 16.7 601L0 601Z" fill="#626262"></path><path d="M0 454L16.7 443C33.3 432 66.7 410 100 401C133.3 392 166.7 396 200 404.8C233.3 413.7 266.7 427.3 300 422C333.3 416.7 366.7 392.3 400 391.3C433.3 390.3 466.7 412.7 500 427.3C533.3 442 566.7 449 600 435.8C633.3 422.7 666.7 389.3 700 372.7C733.3 356 766.7 356 800 355.3C833.3 354.7 866.7 353.3 883.3 352.7L900 352L900 601L883.3 601C866.7 601 833.3 601 800 601C766.7 601 733.3 601 700 601C666.7 601 633.3 601 600 601C566.7 601 533.3 601 500 601C466.7 601 433.3 601 400 601C366.7 601 333.3 601 300 601C266.7 601 233.3 601 200 601C166.7 601 133.3 601 100 601C66.7 601 33.3 601 16.7 601L0 601Z" fill="#878787"></path><path d="M0 484L16.7 481.3C33.3 478.7 66.7 473.3 100 470C133.3 466.7 166.7 465.3 200 465C233.3 464.7 266.7 465.3 300 467.7C333.3 470 366.7 474 400 467.7C433.3 461.3 466.7 444.7 500 437.5C533.3 430.3 566.7 432.7 600 431.7C633.3 430.7 666.7 426.3 700 431.3C733.3 436.3 766.7 450.7 800 454.5C833.3 458.3 866.7 451.7 883.3 448.3L900 445L900 601L883.3 601C866.7 601 833.3 601 800 601C766.7 601 733.3 601 700 601C666.7 601 633.3 601 600 601C566.7 601 533.3 601 500 601C466.7 601 433.3 601 400 601C366.7 601 333.3 601 300 601C266.7 601 233.3 601 200 601C166.7 601 133.3 601 100 601C66.7 601 33.3 601 16.7 601L0 601Z" fill="#adadad"></path><path d="M0 512L16.7 510C33.3 508 66.7 504 100 502C133.3 500 166.7 500 200 493C233.3 486 266.7 472 300 476.2C333.3 480.3 366.7 502.7 400 508.8C433.3 515 466.7 505 500 500.7C533.3 496.3 566.7 497.7 600 501.5C633.3 505.3 666.7 511.7 700 506.3C733.3 501 766.7 484 800 476C833.3 468 866.7 469 883.3 469.5L900 470L900 601L883.3 601C866.7 601 833.3 601 800 601C766.7 601 733.3 601 700 601C666.7 601 633.3 601 600 601C566.7 601 533.3 601 500 601C466.7 601 433.3 601 400 601C366.7 601 333.3 601 300 601C266.7 601 233.3 601 200 601C166.7 601 133.3 601 100 601C66.7 601 33.3 601 16.7 601L0 601Z" fill="#d5d5d5"></path><path d="M0 564L16.7 556.5C33.3 549 66.7 534 100 529.7C133.3 525.3 166.7 531.7 200 530.5C233.3 529.3 266.7 520.7 300 517.5C333.3 514.3 366.7 516.7 400 522.3C433.3 528 466.7 537 500 540C533.3 543 566.7 540 600 538C633.3 536 666.7 535 700 533.7C733.3 532.3 766.7 530.7 800 527.2C833.3 523.7 866.7 518.3 883.3 515.7L900 513L900 601L883.3 601C866.7 601 833.3 601 800 601C766.7 601 733.3 601 700 601C666.7 601 633.3 601 600 601C566.7 601 533.3 601 500 601C466.7 601 433.3 601 400 601C366.7 601 333.3 601 300 601C266.7 601 233.3 601 200 601C166.7 601 133.3 601 100 601C66.7 601 33.3 601 16.7 601L0 601Z" fill="#ffffff"></path></svg>